<svg width="20" height="20" viewBox="0 0 20 20" fill="none" xmlns="http://www.w3.org/2000/svg">
<g opacity="0.35">
<path d="M17.4999 17.5L13.8808 13.8809M13.8808 13.8809C14.4998 13.2618 14.9909 12.5269 15.3259 11.718C15.661 10.9091 15.8334 10.0422 15.8334 9.16672C15.8334 8.29121 15.661 7.42429 15.326 6.61543C14.9909 5.80657 14.4998 5.07162 13.8808 4.45255C13.2617 3.83348 12.5267 3.3424 11.7179 3.00736C10.909 2.67232 10.0421 2.49988 9.16659 2.49988C8.29109 2.49988 7.42416 2.67232 6.61531 3.00736C5.80645 3.3424 5.0715 3.83348 4.45243 4.45255C3.20215 5.70282 2.49976 7.39856 2.49976 9.16672C2.49976 10.9349 3.20215 12.6306 4.45243 13.8809C5.7027 15.1312 7.39844 15.8336 9.16659 15.8336C10.9347 15.8336 12.6305 15.1312 13.8808 13.8809Z" stroke="#3F3F3F" stroke-width="1.8" stroke-linecap="round" stroke-linejoin="round"/>
</g>
</svg>
