<svg width="483" height="106" viewBox="0 0 483 106" fill="none" xmlns="http://www.w3.org/2000/svg">
<path d="M175.332 87.008C171.468 87.008 167.856 86.308 164.496 84.908C161.136 83.508 158.182 81.45 155.634 78.734C153.086 76.018 151.084 72.672 149.628 68.696C148.172 64.692 147.444 60.114 147.444 54.962C147.444 49.782 148.158 45.218 149.586 41.27C151.042 37.294 153.044 33.962 155.592 31.274C158.14 28.586 161.094 26.556 164.454 25.184C167.814 23.812 171.44 23.126 175.332 23.126C179.196 23.126 182.808 23.812 186.168 25.184C189.556 26.556 192.524 28.586 195.072 31.274C197.62 33.962 199.608 37.294 201.036 41.27C202.464 45.218 203.178 49.782 203.178 54.962C203.178 60.114 202.45 64.692 200.994 68.696C199.566 72.672 197.564 76.018 194.988 78.734C192.44 81.45 189.472 83.508 186.084 84.908C182.724 86.308 179.14 87.008 175.332 87.008ZM175.332 76.55C177.936 76.55 180.344 75.836 182.556 74.408C184.796 72.98 186.588 70.684 187.932 67.52C189.276 64.328 189.948 60.142 189.948 54.962C189.948 49.754 189.262 45.582 187.89 42.446C186.546 39.31 184.768 37.056 182.556 35.684C180.344 34.284 177.936 33.584 175.332 33.584C172.728 33.584 170.306 34.284 168.066 35.684C165.854 37.056 164.076 39.31 162.732 42.446C161.388 45.582 160.716 49.754 160.716 54.962C160.716 60.17 161.388 64.356 162.732 67.52C164.076 70.684 165.854 72.98 168.066 74.408C170.306 75.836 172.728 76.55 175.332 76.55Z" fill="white"/>
<path d="M217.172 86V51.476H207.89V41.396H217.172V38.33C217.172 35.362 217.564 32.828 218.348 30.728C219.16 28.6 220.252 26.836 221.624 25.436C222.996 24.008 224.536 22.888 226.244 22.076C227.98 21.236 229.758 20.648 231.578 20.312C233.426 19.948 235.218 19.766 236.954 19.766C238.802 19.766 240.174 19.878 241.07 20.102C241.994 20.298 242.61 20.466 242.918 20.606V30.728C242.582 30.616 241.98 30.49 241.112 30.35C240.272 30.21 239.362 30.14 238.382 30.14C236.758 30.14 235.414 30.35 234.35 30.77C233.286 31.19 232.446 31.806 231.83 32.618C231.214 33.402 230.78 34.34 230.528 35.432C230.276 36.496 230.15 37.658 230.15 38.918V41.396H242.12V51.476H230.15V86H217.172Z" fill="white"/>
<path d="M252.025 67.604V58.994H281.593L280.333 61.178C280.333 60.954 280.333 60.744 280.333 60.548C280.333 60.324 280.333 60.114 280.333 59.918C280.333 58.322 279.955 56.796 279.199 55.34C278.443 53.856 277.267 52.652 275.671 51.728C274.103 50.776 272.087 50.3 269.623 50.3C267.159 50.3 265.031 50.832 263.239 51.896C261.475 52.932 260.117 54.43 259.165 56.39C258.241 58.35 257.779 60.716 257.779 63.488C257.779 66.344 258.227 68.794 259.123 70.838C260.047 72.854 261.405 74.408 263.197 75.5C265.017 76.592 267.271 77.138 269.959 77.138C271.695 77.138 273.193 76.984 274.453 76.676C275.713 76.34 276.735 75.92 277.519 75.416C278.331 74.912 278.947 74.352 279.367 73.736C279.787 73.12 280.039 72.518 280.123 71.93H292.975C292.807 73.806 292.163 75.654 291.043 77.474C289.923 79.266 288.369 80.89 286.381 82.346C284.393 83.774 281.971 84.908 279.115 85.748C276.287 86.588 273.053 87.008 269.413 87.008C264.485 87.008 260.187 86.028 256.519 84.068C252.851 82.08 250.009 79.35 247.993 75.878C245.977 72.378 244.969 68.346 244.969 63.782C244.969 59.162 245.991 55.116 248.035 51.644C250.107 48.144 252.977 45.428 256.645 43.496C260.341 41.536 264.611 40.556 269.455 40.556C274.411 40.556 278.695 41.55 282.307 43.538C285.919 45.498 288.705 48.256 290.665 51.812C292.625 55.34 293.605 59.456 293.605 64.16C293.605 64.86 293.591 65.532 293.563 66.176C293.535 66.82 293.493 67.296 293.437 67.604H252.025Z" fill="white"/>
<path d="M301.742 86V41.396H314.804V56.768L312.116 55.088C312.424 52.988 312.984 51.056 313.796 49.292C314.608 47.528 315.658 46.002 316.946 44.714C318.234 43.398 319.76 42.376 321.524 41.648C323.316 40.92 325.36 40.556 327.656 40.556C329.448 40.556 330.848 40.696 331.856 40.976C332.892 41.228 333.536 41.424 333.788 41.564L331.646 53.24C331.394 53.1 330.834 52.876 329.966 52.568C329.098 52.26 327.978 52.106 326.606 52.106C324.366 52.106 322.49 52.484 320.978 53.24C319.466 53.996 318.248 55.004 317.324 56.264C316.428 57.496 315.784 58.868 315.392 60.38C315 61.892 314.804 63.418 314.804 64.958V86H301.742Z" fill="white"/>
<path d="M362.303 86.924C360.595 86.924 358.831 86.77 357.011 86.462C355.219 86.182 353.539 85.608 351.971 84.74C350.431 83.844 349.185 82.542 348.233 80.834C347.281 79.126 346.805 76.872 346.805 74.072C346.805 73.456 346.805 72.826 346.805 72.182C346.805 71.538 346.805 70.894 346.805 70.25V51.476H336.515V41.396H339.413C341.093 41.396 342.423 41.326 343.403 41.186C344.411 41.046 345.153 40.696 345.629 40.136C346.133 39.548 346.455 38.638 346.595 37.406C346.735 36.174 346.805 34.48 346.805 32.324V26.696H359.867V41.396H372.845V51.476H359.867V67.52C359.867 68.024 359.867 68.514 359.867 68.99C359.867 69.466 359.867 69.928 359.867 70.376C359.867 72.308 360.091 73.876 360.539 75.08C361.015 76.284 362.177 76.886 364.025 76.886C364.949 76.886 365.817 76.802 366.629 76.634C367.469 76.466 368.099 76.298 368.519 76.13V85.916C367.931 86.168 367.105 86.392 366.041 86.588C364.977 86.812 363.731 86.924 362.303 86.924Z" fill="white"/>
<path d="M402.016 86.966C397.2 86.966 392.958 85.972 389.29 83.984C385.622 81.996 382.752 79.266 380.68 75.794C378.636 72.294 377.614 68.262 377.614 63.698C377.614 59.162 378.636 55.158 380.68 51.686C382.752 48.186 385.622 45.47 389.29 43.538C392.958 41.578 397.2 40.598 402.016 40.598C406.832 40.598 411.074 41.578 414.742 43.538C418.41 45.47 421.266 48.186 423.31 51.686C425.382 55.158 426.418 59.162 426.418 63.698C426.418 68.262 425.382 72.294 423.31 75.794C421.266 79.266 418.41 81.996 414.742 83.984C411.074 85.972 406.832 86.966 402.016 86.966ZM402.016 76.634C404.284 76.634 406.258 76.102 407.938 75.038C409.618 73.974 410.92 72.476 411.844 70.544C412.768 68.584 413.23 66.302 413.23 63.698C413.23 61.094 412.768 58.84 411.844 56.936C410.92 55.004 409.618 53.52 407.938 52.484C406.258 51.448 404.284 50.93 402.016 50.93C399.776 50.93 397.802 51.448 396.094 52.484C394.414 53.52 393.112 55.004 392.188 56.936C391.264 58.84 390.802 61.094 390.802 63.698C390.802 66.302 391.264 68.584 392.188 70.544C393.112 72.476 394.414 73.974 396.094 75.038C397.802 76.102 399.776 76.634 402.016 76.634Z" fill="white"/>
<path d="M450.385 86.84C447.221 86.84 444.617 86.336 442.573 85.328C440.529 84.292 438.919 82.906 437.743 81.17C436.567 79.434 435.741 77.502 435.265 75.374C434.789 73.246 434.551 71.09 434.551 68.906C434.551 67.898 434.551 66.834 434.551 65.714C434.551 64.594 434.551 63.446 434.551 62.27V41.396H447.571V60.212C447.571 61.164 447.571 62.088 447.571 62.984C447.571 63.88 447.571 64.706 447.571 65.462C447.571 67.338 447.781 69.06 448.201 70.628C448.621 72.196 449.391 73.456 450.511 74.408C451.659 75.36 453.283 75.836 455.383 75.836C457.427 75.836 459.163 75.262 460.591 74.114C462.019 72.938 463.111 71.44 463.867 69.62C464.623 67.8 465.001 65.924 465.001 63.992L468.655 66.974C468.655 69.774 468.221 72.378 467.353 74.786C466.513 77.194 465.309 79.308 463.741 81.128C462.173 82.92 460.255 84.32 457.987 85.328C455.747 86.336 453.213 86.84 450.385 86.84ZM465.001 86V41.396H478.021V86H465.001Z" fill="white"/>
<path d="M69.2402 68.8906L60.459 71.2441L75.6553 28.6074L84.4365 26.2549L69.2402 68.8906Z" fill="#114B21"/>
<path fill-rule="evenodd" clip-rule="evenodd" d="M85.3623 43.6367C90.87 42.1609 96.0049 44.6958 97.7129 51.0693C99.4345 57.4946 96.2412 62.2068 90.7334 63.6826C85.2258 65.1582 80.1054 62.6739 78.3838 56.249C76.676 49.8754 79.8547 45.1126 85.3623 43.6367ZM90.334 53.0469C89.4112 49.6031 87.9927 48.8812 86.8496 49.1875C85.7067 49.4939 84.8392 50.8282 85.7617 54.2715C86.6844 57.715 88.103 58.4379 89.2461 58.1318C90.3892 57.8255 91.2567 56.4907 90.334 53.0469Z" fill="#114B21"/>
<path fill-rule="evenodd" clip-rule="evenodd" d="M54.1621 33.8154C59.6697 32.3399 64.8039 34.8764 66.5117 41.25C68.2331 47.675 65.0408 52.3865 59.5332 53.8623C54.0255 55.338 48.9043 52.8538 47.1826 46.4287C45.4749 40.055 48.6544 35.2912 54.1621 33.8154ZM59.1338 43.2266C58.211 39.7829 56.7925 39.061 55.6494 39.3672C54.5063 39.6735 53.6387 41.0082 54.5615 44.4521C55.4843 47.8957 56.9028 48.6168 58.0459 48.3105C59.1889 48.0041 60.0565 46.6701 59.1338 43.2266Z" fill="#114B21"/>
<path fill-rule="evenodd" clip-rule="evenodd" d="M118 0C123.523 0 128 4.47715 128 10V94C128 99.5228 123.523 104 118 104H10C4.47715 104 9.66416e-08 99.5228 0 94V10C5.15422e-07 4.47715 4.47715 0 10 0H118ZM108.879 24.8633C105.847 13.549 94.1178 6.86121 82.6807 9.92578L11.4424 29.0137C9.1553 29.6267 7.79246 31.9581 8.39844 34.2207L11.5283 45.9004C11.5585 46.0131 11.6761 46.0784 11.79 46.0479C21.5114 43.4431 31.4806 49.1273 34.0576 58.7441C36.6345 68.3612 30.8427 78.2691 21.1211 80.874C21.0073 80.9047 20.9386 81.0192 20.9688 81.1318L24.208 93.2217C24.8144 95.4843 27.16 96.8216 29.4473 96.209L100.686 77.1211C112.123 74.0566 118.937 62.4001 115.905 51.0859L108.879 24.8633Z" fill="#114B21"/>
<path d="M83.686 48.1314H92.686V60.1314H83.686V48.1314Z" fill="#114B21"/>
<path d="M53 39H62V51H53V39Z" fill="#114B21"/>
</svg>
