<svg width="40" height="40" viewBox="0 0 40 40" fill="none" xmlns="http://www.w3.org/2000/svg">
<g opacity="0.5">
<path d="M26.0994 7.39746C28.078 7.39761 29.9785 8.16053 31.4314 9.52344L31.7166 9.80469C33.1056 11.254 33.918 13.1549 34.0105 15.1514L34.0193 15.5518V15.5566C34.0237 17.6982 33.1984 19.7587 31.7166 21.3047C31.1497 21.8921 30.5832 22.4865 30.0173 23.084L28.321 24.8818L28.3201 24.8828C26.0158 27.329 23.7113 29.7757 21.321 32.0762L21.3074 32.0889C20.9409 32.4282 20.4577 32.6136 19.9578 32.6025L19.7693 32.5889C19.3324 32.536 18.9244 32.3348 18.616 32.0156H18.6169L8.28198 21.3047H8.28296C5.31034 18.222 5.21718 13.3052 8.00366 10.1094L8.28198 9.80566L8.28687 9.80078C9.60661 8.41789 11.3872 7.57462 13.2839 7.42383L13.6638 7.40234C15.5745 7.3445 17.4351 7.99425 18.8914 9.21875L19.1765 9.47168L19.9988 10.2344L20.822 9.47168C22.2577 8.14146 24.1422 7.40114 26.0994 7.39746Z" stroke="#3F3F3F" stroke-width="2.42"/>
</g>
</svg>
