<svg width="40" height="40" viewBox="0 0 40 40" fill="none" xmlns="http://www.w3.org/2000/svg">
<path fill-rule="evenodd" clip-rule="evenodd" d="M20.0001 8.5845C21.6593 7.04716 23.8368 6.19133 26.0988 6.1875C28.544 6.1875 30.8786 7.19333 32.5871 8.96417C34.2873 10.7364 35.2343 13.0986 35.2292 15.5545C35.2343 18.0104 34.2873 20.3726 32.5871 22.1448C31.4595 23.3136 30.3332 24.5107 29.2013 25.712C26.9006 28.1543 24.5759 30.6236 22.1605 32.9483L22.1562 32.954C21.5565 33.5219 20.7569 33.8303 19.9311 33.8119C19.1053 33.7936 18.3201 33.4502 17.7461 32.8563L7.41155 22.1448C3.89114 18.4941 3.89114 12.6149 7.41155 8.96558C9.03875 7.26049 11.2718 6.26457 13.6276 6.19325C15.9835 6.12193 18.2727 6.98096 20.0001 8.5845Z" fill="#C92516"/>
</svg>
